<?xml version="1.0" encoding="UTF-8"?>
<svg width="241px" height="62px" viewBox="0 0 241 62" version="1.1" xmlns="http://www.w3.org/2000/svg" xmlns:xlink="http://www.w3.org/1999/xlink">
    <title>Logo/01 primary/02 grey</title>
    <g id="Symbols" stroke="none" stroke-width="1" fill="none" fill-rule="evenodd">
        <g id="Logo/01-primary/02-grey" fill="#2D2D2C">
            <g transform="translate(-0.000000, 0.000000)">
                <path d="M87.52,55.06 C87.3519253,53.5527462 87.278448,52.0364428 87.3,50.52 C85.7510645,53.4292698 82.7357701,55.2591621 79.44,55.29 C76.8848747,55.4608971 74.5121042,53.9612415 73.57,51.58 C73.13,50.39 72.95,48.58 72.95,44.74 L72.95,37.45 C72.95,35.16 72.78,34.23 72.29,33.83 C72.02,33.57 71.63,33.48 70.79,33.44 L70,33.44 L70,32.44 L76.85,32 C76.63,36.1 76.58,37.16 76.58,40.21 L76.58,44.05 C76.58,48.5 76.67,49.7 77.2,51.24 C77.6553975,52.8089899 79.1515371,53.8412426 80.78,53.71 C83.2,53.71 85.37,52.12 86.52,49.43 C87.18,47.93 87.31,46.96 87.31,44.22 L87.31,37.42 C87.31,35.08 87.18,34.24 86.65,33.85 C86.220723,33.5246525 85.6870044,33.368095 85.15,33.41 L84.35,33.41 L84.35,32.41 L91.19,31.97 C91.05,35.29 91,38.29 91,40.29 L91,48.63 C91,53.04 91.4,53.84 93.69,53.84 L94,53.84 L94,54.84 L87.52,55.06 Z" id="Path"></path>
                <path d="M105.09,27.17 C107.74,23.86 111.58,22.17 116.35,22.17 C121.12,22.17 124.91,23.84 127.6,27.17 C130.113541,30.4913717 131.406065,34.5773007 131.26,38.74 C131.429002,42.8996492 130.133841,46.9868363 127.6,50.29 C124.86,53.69 121.16,55.37 116.35,55.37 C111.54,55.37 107.69,53.6 105.09,50.29 C100.203177,43.3726969 100.203177,34.1273031 105.09,27.21 L105.09,27.17 Z M108.27,49.29 C109.873603,52.2555188 112.973673,54.1034482 116.345,54.1034482 C119.716327,54.1034482 122.816397,52.2555188 124.42,49.29 C127.593727,42.5831748 127.593727,34.8068252 124.42,28.1 C122.888034,25.0695605 119.74435,23.1958159 116.35,23.29 C112.957837,23.2139122 109.820131,25.0817791 108.27,28.1 C105.096273,34.8068252 105.096273,42.5831748 108.27,49.29 L108.27,49.29 Z" id="Shape"></path>
                <path d="M141.29,48.49 C141.29,51.09 141.41,52.24 141.86,52.86 C142.374436,53.51788 143.188553,53.8684025 144.02,53.79 C145.003758,53.7921962 145.967881,53.5147509 146.8,52.99 L147.2,54.14 C145.827033,54.8694789 144.29471,55.2474059 142.74,55.2401068 C140.58,55.2401068 138.94,54.49 138.19,53.08 C137.71,52.2 137.58,51.23 137.58,47.96 L137.58,33.66 L134.8,33.66 L134.8,32.66 C137.4,32.44 138.72,30.72 139.39,26.57 L141.39,25.99 C141.31,27.89 141.27,29.57 141.27,32.49 L146.56,32.49 L146.56,33.68 L141.27,33.68 L141.29,48.49 Z" id="Path"></path>
                <path d="M155.84,48.49 C155.84,51.09 155.97,52.24 156.41,52.86 C156.924436,53.51788 157.738553,53.8684025 158.57,53.79 C159.553758,53.7921962 160.517881,53.5147509 161.35,52.99 L161.75,54.14 C160.381071,54.8706247 158.851678,55.2486768 157.3,55.2401461 C155.13,55.2401461 153.5,54.49 152.75,53.08 C152.26,52.2 152.13,51.23 152.13,47.96 L152.13,33.66 L149.35,33.66 L149.35,32.66 C151.95,32.44 153.28,30.72 153.94,26.57 L155.94,25.99 C155.85,27.89 155.81,29.57 155.81,32.49 L161.11,32.49 L161.11,33.68 L155.81,33.68 L155.84,48.49 Z" id="Path"></path>
                <path d="M185.33,54.67 C183.82336,54.906446 182.304029,55.0533704 180.78,55.11 C179.46,55.11 179.1,54.4 178.92,51.45 C178.284115,52.1701078 177.558145,52.8053317 176.76,53.34 C175.137073,54.6617052 173.092056,55.3540286 171,55.29 C169.385183,55.3932306 167.787342,54.9103274 166.5,53.93 C165.234119,52.7053014 164.531831,51.0111213 164.56,49.25 C164.56,45.76 166.77,43.51 171.05,42.54 C173.633152,41.9718879 176.258682,41.6173577 178.9,41.48 L178.9,38.7 C179.002909,37.3376498 178.794305,35.96975 178.29,34.7 C177.71,33.55 176.48,32.98 174.67,32.98 C171.76,32.98 170.25,34.3 170.08,37.04 C170.03,37.97 169.94,38.27 169.59,38.54 C169.116767,38.8007368 168.579355,38.9220878 168.04,38.89 C166.55,38.89 165.88,38.49 165.88,37.57 C165.88,35.98 167.03,34.39 168.88,33.33 C170.876585,32.3232884 173.095468,31.8382302 175.33,31.92 C178.15,31.92 180.18,32.58 181.25,33.86 C182.13,34.96 182.53,36.42 182.53,38.86 C182.53,38.99 182.53,38.99 182.44,43.32 L182.44,47.51 L182.44,49.51 C182.35885,50.7956051 182.521716,52.084955 182.92,53.31 C183.19,53.66 183.71,53.79 185.4,53.79 L185.33,54.67 Z M178.92,42.44 C175,42.79 173.27,43.15 171.51,44.03 C169.583652,44.9286243 168.396387,46.9073991 168.51,49.03 C168.51,51.81 170.01,53.71 172.22,53.71 C174.528788,53.6688477 176.65789,52.455448 177.87,50.49 C178.57,49.26 178.87,47.4 178.87,44.49 L178.92,42.44 Z" id="Shape"></path>
                <path d="M196.36,54.93 L194.07,54.93 L188.59,36.61 C187.84,34.1 187.31,33.61 185.15,33.44 L185.15,32.44 L195,32.44 L195,33.44 C192.88,33.52 192,33.97 192,35.07 C192.055604,35.7302879 192.189889,36.3815691 192.4,37.01 L196.4,50.87 L202.23,33.04 L204,33.04 L209.6,50.87 L213.44,37.87 C213.754324,37.0427506 213.943081,36.1731202 214,35.29 C214.000948,34.5413897 213.49484,33.8871521 212.77,33.7 C212.121034,33.5052129 211.447556,33.4041912 210.77,33.4 L210.77,32.4 L219.42,32.4 L219.42,33.4 C216.99,33.53 216.16,34.4 215.1,37.77 L209.76,54.89 L207.51,54.89 L202,37.98 L196.36,54.93 Z" id="Path"></path>
                <path d="M240.41,54.67 C238.906761,54.906801 237.390735,55.0537285 235.87,55.11 C234.54,55.11 234.19,54.4 234.01,51.45 C233.374115,52.1701078 232.648145,52.8053317 231.85,53.34 C230.225352,54.6392073 228.188954,55.3132763 226.11,55.24 C224.495183,55.3432306 222.897342,54.8603274 221.61,53.88 C220.344119,52.6553014 219.641831,50.9611213 219.67,49.2 C219.67,45.71 221.87,43.46 226.16,42.49 C228.743152,41.9218879 231.368682,41.5673577 234.01,41.43 L234.01,38.65 C234.117696,37.2865761 233.905388,35.9168458 233.39,34.65 C232.82,33.5 231.59,32.93 229.78,32.93 C226.86,32.93 225.36,34.25 225.18,36.99 C225.18,37.92 225.05,38.22 224.7,38.49 C224.226767,38.7507368 223.689355,38.8720878 223.15,38.84 C221.65,38.84 220.99,38.44 220.99,37.52 C220.99,35.93 222.14,34.34 223.99,33.28 C225.986585,32.2732884 228.205468,31.7882302 230.44,31.87 C233.26,31.87 235.3,32.53 236.36,33.81 C237.23,34.91 237.63,36.37 237.63,38.81 C237.63,38.94 237.63,38.94 237.54,43.27 L237.54,47.46 L237.54,49.46 C237.44124,50.7544675 237.597528,52.0557327 238,53.29 C238.26,53.64 238.79,53.77 240.46,53.77 L240.41,54.67 Z M234,42.44 C230.08,42.79 228.35,43.15 226.59,44.03 C224.659777,44.9243186 223.470764,46.9060063 223.59,49.03 C223.59,51.81 225.09,53.71 227.3,53.71 C229.609297,53.6707039 231.739228,52.4568321 232.95,50.49 C233.66,49.26 233.95,47.4 233.95,44.49 L234,42.44 Z" id="Shape"></path>
                <path d="M13.14,7.09 L6.5,7.09 L6.5,10.57 L-2.87769808e-13,10.57 L-2.87769808e-13,61.57 L53.64,61.57 L53.64,10.57 L47.14,10.57 L47.14,7.09 L40.5,7.09 C37.68,2.52 32.87,0 26.82,0 C20.77,0 16,2.52 13.14,7.09 Z M13.92,9.94 L14.77,9.94 L15.17,9.2 C18.02,3.95 23.08,2.85 26.82,2.85 C30.56,2.85 35.62,3.95 38.47,9.2 L38.87,9.94 L44.29,9.94 L44.29,13.43 L50.79,13.43 L50.79,58.73 L2.85,58.73 L2.85,13.43 L9.35,13.43 L9.35,9.94 L13.92,9.94 Z" id="Shape"></path>
                <polygon id="Path" points="26.34 16.63 5.34 24.18 6.34 26.86 26.85 19.49 47.36 26.86 48.36 24.18 26.89 16.46"></polygon>
                <path d="M44.91,46.67 L44.51,30.67 C44.6386157,30.7411691 44.7830102,30.7789868 44.93,30.78 C45.4215334,30.78 45.82,30.3815334 45.82,29.89 C45.8183449,29.6591003 45.7289754,29.4374641 45.57,29.27 L46.28,29.27 L46.28,27.7 L7.36,27.7 L7.36,29.29 L8.07,29.29 C7.90469221,29.4541106 7.81119413,29.6770676 7.81,29.91 C7.80998499,30.1477855 7.90512405,30.3756893 8.07420051,30.5428871 C8.24327697,30.710085 8.47222946,30.8026717 8.71,30.8 C8.84883219,30.7948144 8.98506071,30.7607572 9.11,30.7 L8.72,46.7 L7.24,46.7 L7.24,49.29 L46.39,49.29 L46.39,46.68 L44.91,46.67 Z M16.91,46.67 L12.41,46.67 L12.02,30.67 C12.1470719,30.7346521 12.287431,30.768886 12.43,30.77 C12.6651335,30.7700152 12.8904939,30.6759297 13.0558164,30.5087285 C13.2211389,30.3415274 13.312672,30.1151183 13.31,29.88 C13.2890803,29.6499806 13.1775536,29.4377202 13,29.29 L16.19,29.29 C16.0310246,29.4574641 15.9416551,29.6791003 15.94,29.91 C15.94,30.4015334 16.3384666,30.8 16.83,30.8 C16.9692282,30.7977094 17.1060737,30.763498 17.23,30.7 L16.91,46.67 Z M25.05,46.67 L20.55,46.67 L20.16,30.67 C20.2839263,30.733498 20.4207718,30.7677094 20.56,30.77 C21.0515334,30.77 21.45,30.3715334 21.45,29.88 C21.4483449,29.6491003 21.3589754,29.4274641 21.2,29.26 L24.4,29.26 C24.2410246,29.4274641 24.1516551,29.6491003 24.15,29.88 C24.15,30.3715334 24.5484666,30.77 25.04,30.77 C25.1793711,30.7688134 25.3164671,30.7345394 25.44,30.67 L25.05,46.67 Z M33.18,46.67 L28.69,46.67 L28.3,30.67 C28.4202223,30.721241 28.5493227,30.74842 28.68,30.75 C29.1715334,30.75 29.57,30.3515334 29.57,29.86 C29.5683449,29.6291003 29.4789754,29.4074641 29.32,29.24 L32.53,29.24 C32.3646922,29.4041106 32.2711941,29.6270676 32.27,29.86 C32.27,30.3515334 32.6684666,30.75 33.16,30.75 C33.3022243,30.7462125 33.4420032,30.7121201 33.57,30.65 L33.18,46.67 Z M41.31,46.67 L36.83,46.67 L36.44,30.67 C36.5603927,30.7333691 36.6939692,30.7676195 36.83,30.77 C37.3215334,30.77 37.72,30.3715334 37.72,29.88 C37.7183449,29.6491003 37.6289754,29.4274641 37.47,29.26 L40.67,29.26 C40.5110246,29.4274641 40.4216551,29.6491003 40.42,29.88 C40.42,30.3715334 40.8184666,30.77 41.31,30.77 C41.445269,30.77109 41.5788875,30.7402549 41.7,30.68 L41.31,46.67 Z" id="Shape"></path>
                <rect id="Rectangle" x="5.83" y="51.09" width="41.98" height="1.57"></rect>
                <rect id="Rectangle" x="4.6" y="53.83" width="44.45" height="1.57"></rect>
            </g>
        </g>
    </g>
</svg>
